<mxfile host="app.diagrams.net" agent="Mozilla/5.0 (Windows NT 10.0; Win64; x64) AppleWebKit/537.36 (KHTML, like Gecko) Chrome/138.0.0.0 Safari/537.36" version="28.1.0">
  <diagram name="Page-1" id="IGZ-1liTbxVT1KNj73rI">
    <mxGraphModel dx="1389" dy="877" grid="1" gridSize="10" guides="1" tooltips="1" connect="1" arrows="1" fold="1" page="1" pageScale="1" pageWidth="850" pageHeight="1100" math="0" shadow="0">
      <root>
        <mxCell id="0" />
        <mxCell id="1" parent="0" />
        <mxCell id="UhmRcq0wU7Ugg3cju9hT-3" value="" style="edgeStyle=orthogonalEdgeStyle;rounded=0;orthogonalLoop=1;jettySize=auto;html=1;" edge="1" parent="1" source="UhmRcq0wU7Ugg3cju9hT-1" target="UhmRcq0wU7Ugg3cju9hT-2">
          <mxGeometry relative="1" as="geometry" />
        </mxCell>
        <mxCell id="UhmRcq0wU7Ugg3cju9hT-1" value="start" style="shape=parallelogram;perimeter=parallelogramPerimeter;whiteSpace=wrap;html=1;fixedSize=1;" vertex="1" parent="1">
          <mxGeometry x="340" y="20" width="120" height="60" as="geometry" />
        </mxCell>
        <mxCell id="UhmRcq0wU7Ugg3cju9hT-5" value="" style="edgeStyle=orthogonalEdgeStyle;rounded=0;orthogonalLoop=1;jettySize=auto;html=1;" edge="1" parent="1" source="UhmRcq0wU7Ugg3cju9hT-2" target="UhmRcq0wU7Ugg3cju9hT-4">
          <mxGeometry relative="1" as="geometry" />
        </mxCell>
        <mxCell id="UhmRcq0wU7Ugg3cju9hT-15" style="edgeStyle=orthogonalEdgeStyle;rounded=0;orthogonalLoop=1;jettySize=auto;html=1;exitX=1;exitY=0.5;exitDx=0;exitDy=0;entryX=0.417;entryY=0;entryDx=0;entryDy=0;entryPerimeter=0;" edge="1" parent="1" source="UhmRcq0wU7Ugg3cju9hT-2" target="UhmRcq0wU7Ugg3cju9hT-13">
          <mxGeometry relative="1" as="geometry">
            <mxPoint x="600" y="210" as="targetPoint" />
          </mxGeometry>
        </mxCell>
        <mxCell id="UhmRcq0wU7Ugg3cju9hT-2" value="is feeding&lt;div&gt;time&lt;/div&gt;" style="rhombus;whiteSpace=wrap;html=1;" vertex="1" parent="1">
          <mxGeometry x="360" y="170" width="80" height="90" as="geometry" />
        </mxCell>
        <mxCell id="UhmRcq0wU7Ugg3cju9hT-7" value="" style="edgeStyle=orthogonalEdgeStyle;rounded=0;orthogonalLoop=1;jettySize=auto;html=1;" edge="1" parent="1" source="UhmRcq0wU7Ugg3cju9hT-4" target="UhmRcq0wU7Ugg3cju9hT-6">
          <mxGeometry relative="1" as="geometry" />
        </mxCell>
        <mxCell id="UhmRcq0wU7Ugg3cju9hT-20" value="" style="edgeStyle=orthogonalEdgeStyle;rounded=0;orthogonalLoop=1;jettySize=auto;html=1;" edge="1" parent="1" source="UhmRcq0wU7Ugg3cju9hT-4" target="UhmRcq0wU7Ugg3cju9hT-6">
          <mxGeometry relative="1" as="geometry" />
        </mxCell>
        <mxCell id="UhmRcq0wU7Ugg3cju9hT-4" value="is food&amp;nbsp;&lt;div&gt;available&lt;/div&gt;" style="rhombus;whiteSpace=wrap;html=1;" vertex="1" parent="1">
          <mxGeometry x="360" y="340" width="80" height="90" as="geometry" />
        </mxCell>
        <mxCell id="UhmRcq0wU7Ugg3cju9hT-14" value="" style="edgeStyle=orthogonalEdgeStyle;rounded=0;orthogonalLoop=1;jettySize=auto;html=1;" edge="1" parent="1" source="UhmRcq0wU7Ugg3cju9hT-6" target="UhmRcq0wU7Ugg3cju9hT-13">
          <mxGeometry relative="1" as="geometry" />
        </mxCell>
        <mxCell id="UhmRcq0wU7Ugg3cju9hT-17" value="" style="edgeStyle=orthogonalEdgeStyle;rounded=0;orthogonalLoop=1;jettySize=auto;html=1;" edge="1" parent="1" source="UhmRcq0wU7Ugg3cju9hT-6" target="UhmRcq0wU7Ugg3cju9hT-8">
          <mxGeometry relative="1" as="geometry" />
        </mxCell>
        <mxCell id="UhmRcq0wU7Ugg3cju9hT-21" value="" style="edgeStyle=orthogonalEdgeStyle;rounded=0;orthogonalLoop=1;jettySize=auto;html=1;" edge="1" parent="1" source="UhmRcq0wU7Ugg3cju9hT-6" target="UhmRcq0wU7Ugg3cju9hT-4">
          <mxGeometry relative="1" as="geometry" />
        </mxCell>
        <mxCell id="UhmRcq0wU7Ugg3cju9hT-6" value="dispense food" style="whiteSpace=wrap;html=1;" vertex="1" parent="1">
          <mxGeometry x="340" y="530" width="120" height="60" as="geometry" />
        </mxCell>
        <mxCell id="UhmRcq0wU7Ugg3cju9hT-19" style="edgeStyle=orthogonalEdgeStyle;rounded=0;orthogonalLoop=1;jettySize=auto;html=1;exitX=1;exitY=0.5;exitDx=0;exitDy=0;entryX=0;entryY=0.5;entryDx=0;entryDy=0;" edge="1" parent="1" source="UhmRcq0wU7Ugg3cju9hT-8" target="UhmRcq0wU7Ugg3cju9hT-18">
          <mxGeometry relative="1" as="geometry" />
        </mxCell>
        <mxCell id="UhmRcq0wU7Ugg3cju9hT-8" value="has pet eaten" style="rhombus;whiteSpace=wrap;html=1;" vertex="1" parent="1">
          <mxGeometry x="350" y="660" width="100" height="80" as="geometry" />
        </mxCell>
        <mxCell id="UhmRcq0wU7Ugg3cju9hT-13" value="alert sending" style="whiteSpace=wrap;html=1;" vertex="1" parent="1">
          <mxGeometry x="590" y="260" width="120" height="60" as="geometry" />
        </mxCell>
        <mxCell id="UhmRcq0wU7Ugg3cju9hT-18" value="output" style="shape=parallelogram;perimeter=parallelogramPerimeter;whiteSpace=wrap;html=1;fixedSize=1;" vertex="1" parent="1">
          <mxGeometry x="580" y="670" width="120" height="60" as="geometry" />
        </mxCell>
      </root>
    </mxGraphModel>
  </diagram>
</mxfile>
